<svg width="20" height="20" viewBox="0 0 20 20" fill="none" xmlns="http://www.w3.org/2000/svg">
<path d="M9.69459 13.4069C9.12276 13.4069 8.65979 13.8834 8.65979 14.4553C8.65979 15.0135 9.10913 15.5037 9.69459 15.5037C10.2801 15.5037 10.743 15.0136 10.743 14.4553C10.743 13.8834 10.2665 13.4069 9.69459 13.4069Z" fill="#2F2F2F"/>
<path d="M9.87076 5.46875C8.0326 5.46875 7.18842 6.55801 7.18842 7.29328C7.18842 7.82434 7.63771 8.06941 8.00537 8.06941C8.7406 8.06941 8.44107 7.02098 9.8299 7.02098C10.5107 7.02098 11.0554 7.32055 11.0554 7.94687C11.0554 8.68219 10.2929 9.10426 9.84353 9.48551C9.44869 9.8259 8.93127 10.3842 8.93127 11.5552C8.93127 12.2632 9.12185 12.4674 9.68013 12.4674C10.3473 12.4674 10.4835 12.1679 10.4835 11.9092C10.4835 11.2011 10.4971 10.7927 11.246 10.2072C11.6136 9.92125 12.771 8.99535 12.771 7.71543C12.771 6.43551 11.6136 5.46875 9.87076 5.46875Z" fill="#2F2F2F"/>
<path d="M10 0C4.47328 0 0 4.47254 0 10V19.2188C0 19.6502 0.349766 20 0.78125 20H10C15.5267 20 20 15.5275 20 10C20 4.47328 15.5275 0 10 0ZM10 18.4375H1.5625V10C1.5625 5.33684 5.33621 1.5625 10 1.5625C14.6632 1.5625 18.4375 5.33621 18.4375 10C18.4375 14.6632 14.6638 18.4375 10 18.4375Z" fill="#2F2F2F"/>
</svg>
