<svg width="515" height="100" viewBox="0 0 515 100" fill="none" xmlns="http://www.w3.org/2000/svg">
<path d="M34.9967 0H0L0.239263 37.6338C22.2443 37.4875 41.6211 21.7104 34.9967 0Z" fill="white"/>
<path d="M77.7463 0H48.0491C53.6985 26.7768 28.1259 50.9633 0 51.1167V73.5943C21.2909 73.53 40.9854 65.8306 55.4876 51.9052C62.522 45.2099 68.1221 37.157 71.9482 28.2347C75.7744 19.3124 77.7469 9.7067 77.7463 0V0Z" fill="white"/>
<path d="M63.1869 62.7944C46.6063 78.7106 24.1727 87.5125 0 87.5767V99.8751H77.7463V44.2843C73.7852 51.1054 68.8842 57.3364 63.1869 62.7944Z" fill="white"/>
<path d="M115.611 99.9714V57.2285C115.611 38.1154 126.456 23.5157 148.6 23.5157C153.421 23.5157 158.692 24.4184 162.46 26.0739V46.8424C158.831 44.7861 154.733 43.6975 150.561 43.6813C142.122 43.6813 136.991 49.1009 136.991 57.9813V99.9714H115.611Z" fill="white"/>
<path d="M169.723 61.5349C169.723 40.6843 187.197 23.2161 210.077 23.2161C233.428 23.2161 250.598 39.6568 250.598 61.5349V100H230.278V89.5747C225.004 96.0361 216.872 100 206.627 100C184.936 100 169.723 82.6745 169.723 61.5349ZM229.221 61.6812C229.221 51.4022 221.09 42.8892 210.091 42.8892C199.092 42.8892 191.111 51.4022 191.111 61.6812C191.111 71.9602 199.096 80.4731 210.091 80.4731C221.086 80.4731 229.221 71.9566 229.221 61.6812Z" fill="white"/>
<path d="M276.71 99.9715C264.211 99.9715 258.033 92.8964 257.883 84.7688C257.733 77.8471 260.443 72.8807 266.921 68.667L302.168 45.1869C302.331 45.0924 302.47 44.9619 302.574 44.8054C302.679 44.649 302.746 44.4707 302.772 44.2843C302.772 43.5315 302.168 43.5315 301.7 43.5315H260.276V25.4709H306.235C318.734 25.4709 325.066 32.546 325.066 40.6736C325.216 47.5953 322.505 52.5617 316.027 56.7754L280.777 80.2555C280.57 80.3752 280.403 80.553 280.297 80.7667C280.19 80.9804 280.148 81.2207 280.177 81.4578C280.177 81.9109 280.477 81.9109 281.081 81.9109H324.312V99.9715H276.71Z" fill="white"/>
<path d="M351.17 99.9715C338.672 99.9715 332.49 92.8964 332.34 84.7688C332.19 77.8471 334.901 72.8807 341.379 68.667L376.625 45.1869C376.788 45.0924 376.927 44.9619 377.032 44.8054C377.136 44.649 377.204 44.4707 377.229 44.2843C377.229 43.5315 376.625 43.5315 376.175 43.5315H334.751V25.4709H380.678C393.177 25.4709 399.509 32.546 399.509 40.6736C399.659 47.5953 396.948 52.5617 390.47 56.7754L355.22 80.2555C355.013 80.3752 354.846 80.553 354.74 80.7667C354.633 80.9804 354.591 81.2207 354.62 81.4578C354.62 81.9109 354.92 81.9109 355.524 81.9109H398.755V99.9715H351.17Z" fill="white"/>
<path d="M429.635 0.239014V99.9714H408.244V0.239014H429.635Z" fill="white"/>
<path d="M438.352 61.0889C438.352 40.0885 454.018 22.7629 477.062 22.7629C500.714 22.7629 514.423 39.7959 514.423 59.6189V65.7878H458.985C460.492 75.4781 468.177 81.9395 478.873 81.9395C487.004 81.9395 493.786 78.1219 497.25 71.3643L513.677 79.442C507.199 92.511 494.846 100 479.037 100C455.825 100 438.352 84.2871 438.352 61.0889ZM493.168 54.1851C492.264 46.6926 485.936 40.984 476.898 40.984C467.56 40.984 461.385 46.8603 459.878 54.1851H493.168Z" fill="white"/>
</svg>
